<?xml version="1.0" standalone="no"?><!DOCTYPE svg PUBLIC "-//W3C//DTD SVG 1.1//EN" "http://www.w3.org/Graphics/SVG/1.1/DTD/svg11.dtd"><svg t="1523522607574" class="icon" style="" viewBox="0 0 1024 1024" version="1.1" xmlns="http://www.w3.org/2000/svg" p-id="1948" xmlns:xlink="http://www.w3.org/1999/xlink" width="200" height="200"><defs><style type="text/css"></style></defs><path d="M846.3104 562.304c-1.5104 2.0416-3.1872 4-5.0432 5.8496l-293.056 293.056a51.2 51.2 0 0 1-72.4032 0L185.8496 571.264a51.5328 51.5328 0 0 1-5.6384-6.688C132.48 522.2016 102.4 460.2752 102.4 391.3024c0-127.7184 103.1552-231.2576 230.4-231.2576 72.384 0 136.96 33.4976 179.2 85.888 42.24-52.3904 106.816-85.888 179.2-85.888 127.2448 0 230.4 103.5392 230.4 231.2576 0 67.7504-29.0304 128.704-75.2896 170.9952z" fill="#d81e06" p-id="1949"></path></svg>