<?xml version="1.0" standalone="no"?><!DOCTYPE svg PUBLIC "-//W3C//DTD SVG 1.1//EN" "http://www.w3.org/Graphics/SVG/1.1/DTD/svg11.dtd"><svg t="1522911280248" class="icon" style="" viewBox="0 0 1025 1024" version="1.1" xmlns="http://www.w3.org/2000/svg" p-id="3421" xmlns:xlink="http://www.w3.org/1999/xlink" width="200.1953125" height="200"><defs><style type="text/css"></style></defs><path d="M1004.8 908.8l-185.6-185.6c57.6-76.8 89.6-166.4 89.6-268.8C908.8 204.8 704 0 454.4 0S0 204.8 0 454.4s204.8 454.4 454.4 454.4c102.4 0 198.4-32 275.2-89.6l185.6 185.6c25.6 25.6 70.4 25.6 96 0C1030.4 979.2 1030.4 934.4 1004.8 908.8zM134.4 454.4c0-179.2 147.2-320 320-320s320 147.2 320 320c0 179.2-147.2 320-320 320S134.4 633.6 134.4 454.4z" p-id="3422" fill="#e6e6e6"></path></svg>